<?xml version="1.0" encoding="UTF-8"?>
<svg xmlns="http://www.w3.org/2000/svg" class="qr-svg qrcode" viewBox="0 0 21 21" preserveAspectRatio="xMidYMid">
<path class="qr-data light qrcode" fill="#fff" d="M9 0 h1 v1 h-1Z M9 1 h1 v1 h-1Z M12 1 h1 v1 h-1Z M10 2 h1 v1 h-1Z M12 2 h1 v1 h-1Z M10 3 h1 v1 h-1Z M11 3 h1 v1 h-1Z M9 4 h1 v1 h-1Z M10 4 h1 v1 h-1Z M12 4 h1 v1 h-1Z M9 7 h1 v1 h-1Z M10 7 h1 v1 h-1Z M1 9 h1 v1 h-1Z M7 9 h1 v1 h-1Z M8 9 h1 v1 h-1Z M10 9 h1 v1 h-1Z M15 9 h1 v1 h-1Z M16 9 h1 v1 h-1Z M18 9 h1 v1 h-1Z M20 9 h1 v1 h-1Z M0 10 h1 v1 h-1Z M1 10 h1 v1 h-1Z M5 10 h1 v1 h-1Z M10 10 h1 v1 h-1Z M12 10 h1 v1 h-1Z M13 10 h1 v1 h-1Z M14 10 h1 v1 h-1Z M15 10 h1 v1 h-1Z M16 10 h1 v1 h-1Z M19 10 h1 v1 h-1Z M0 11 h1 v1 h-1Z M1 11 h1 v1 h-1Z M2 11 h1 v1 h-1Z M3 11 h1 v1 h-1Z M5 11 h1 v1 h-1Z M8 11 h1 v1 h-1Z M10 11 h1 v1 h-1Z M12 11 h1 v1 h-1Z M13 11 h1 v1 h-1Z M19 11 h1 v1 h-1Z M20 11 h1 v1 h-1Z M0 12 h1 v1 h-1Z M1 12 h1 v1 h-1Z M5 12 h1 v1 h-1Z M7 12 h1 v1 h-1Z M8 12 h1 v1 h-1Z M9 12 h1 v1 h-1Z M11 12 h1 v1 h-1Z M13 12 h1 v1 h-1Z M14 12 h1 v1 h-1Z M16 12 h1 v1 h-1Z M17 12 h1 v1 h-1Z M19 12 h1 v1 h-1Z M20 12 h1 v1 h-1Z M12 13 h1 v1 h-1Z M13 13 h1 v1 h-1Z M15 13 h1 v1 h-1Z M16 13 h1 v1 h-1Z M18 13 h1 v1 h-1Z M19 13 h1 v1 h-1Z M9 14 h1 v1 h-1Z M13 14 h1 v1 h-1Z M14 14 h1 v1 h-1Z M16 14 h1 v1 h-1Z M18 14 h1 v1 h-1Z M19 14 h1 v1 h-1Z M10 15 h1 v1 h-1Z M11 15 h1 v1 h-1Z M12 15 h1 v1 h-1Z M13 15 h1 v1 h-1Z M14 15 h1 v1 h-1Z M17 15 h1 v1 h-1Z M19 15 h1 v1 h-1Z M9 16 h1 v1 h-1Z M11 16 h1 v1 h-1Z M17 16 h1 v1 h-1Z M18 16 h1 v1 h-1Z M20 16 h1 v1 h-1Z M9 17 h1 v1 h-1Z M10 17 h1 v1 h-1Z M12 17 h1 v1 h-1Z M13 17 h1 v1 h-1Z M20 17 h1 v1 h-1Z M9 18 h1 v1 h-1Z M10 18 h1 v1 h-1Z M11 18 h1 v1 h-1Z M13 18 h1 v1 h-1Z M16 18 h1 v1 h-1Z M17 18 h1 v1 h-1Z M18 18 h1 v1 h-1Z M19 18 h1 v1 h-1Z M20 18 h1 v1 h-1Z M10 19 h1 v1 h-1Z M11 19 h1 v1 h-1Z M12 19 h1 v1 h-1Z M14 19 h1 v1 h-1Z M16 19 h1 v1 h-1Z M17 19 h1 v1 h-1Z M19 19 h1 v1 h-1Z M11 20 h1 v1 h-1Z
M12 20 h1 v1 h-1Z M14 20 h1 v1 h-1Z M15 20 h1 v1 h-1Z M17 20 h1 v1 h-1Z M18 20 h1 v1 h-1Z M20 20 h1 v1 h-1Z"/>
<path class="qr-finder light qrcode" fill="#fff" d="M1 1 h1 v1 h-1Z M2 1 h1 v1 h-1Z M3 1 h1 v1 h-1Z M4 1 h1 v1 h-1Z M5 1 h1 v1 h-1Z M15 1 h1 v1 h-1Z M16 1 h1 v1 h-1Z M17 1 h1 v1 h-1Z M18 1 h1 v1 h-1Z M19 1 h1 v1 h-1Z M1 2 h1 v1 h-1Z M5 2 h1 v1 h-1Z M15 2 h1 v1 h-1Z M19 2 h1 v1 h-1Z M1 3 h1 v1 h-1Z M5 3 h1 v1 h-1Z M15 3 h1 v1 h-1Z M19 3 h1 v1 h-1Z M1 4 h1 v1 h-1Z M5 4 h1 v1 h-1Z M15 4 h1 v1 h-1Z M19 4 h1 v1 h-1Z M1 5 h1 v1 h-1Z M2 5 h1 v1 h-1Z M3 5 h1 v1 h-1Z M4 5 h1 v1 h-1Z M5 5 h1 v1 h-1Z M15 5 h1 v1 h-1Z M16 5 h1 v1 h-1Z M17 5 h1 v1 h-1Z M18 5 h1 v1 h-1Z M19 5 h1 v1 h-1Z M1 15 h1 v1 h-1Z M2 15 h1 v1 h-1Z M3 15 h1 v1 h-1Z M4 15 h1 v1 h-1Z M5 15 h1 v1 h-1Z M1 16 h1 v1 h-1Z M5 16 h1 v1 h-1Z M1 17 h1 v1 h-1Z M5 17 h1 v1 h-1Z M1 18 h1 v1 h-1Z M5 18 h1 v1 h-1Z M1 19 h1 v1 h-1Z M2 19 h1 v1 h-1Z M3 19 h1 v1 h-1Z M4 19 h1 v1 h-1Z M5 19 h1 v1 h-1Z"/>
<path class="qr-separator light qrcode" fill="#fff" d="M7 0 h1 v1 h-1Z M13 0 h1 v1 h-1Z M7 1 h1 v1 h-1Z M13 1 h1 v1 h-1Z M7 2 h1 v1 h-1Z M13 2 h1 v1 h-1Z M7 3 h1 v1 h-1Z M13 3 h1 v1 h-1Z M7 4 h1 v1 h-1Z M13 4 h1 v1 h-1Z M7 5 h1 v1 h-1Z M13 5 h1 v1 h-1Z M7 6 h1 v1 h-1Z M13 6 h1 v1 h-1Z M0 7 h1 v1 h-1Z M1 7 h1 v1 h-1Z M2 7 h1 v1 h-1Z M3 7 h1 v1 h-1Z M4 7 h1 v1 h-1Z M5 7 h1 v1 h-1Z M6 7 h1 v1 h-1Z M7 7 h1 v1 h-1Z M13 7 h1 v1 h-1Z M14 7 h1 v1 h-1Z M15 7 h1 v1 h-1Z M16 7 h1 v1 h-1Z M17 7 h1 v1 h-1Z M18 7 h1 v1 h-1Z M19 7 h1 v1 h-1Z M20 7 h1 v1 h-1Z M0 13 h1 v1 h-1Z M1 13 h1 v1 h-1Z M2 13 h1 v1 h-1Z M3 13 h1 v1 h-1Z M4 13 h1 v1 h-1Z M5 13 h1 v1 h-1Z M6 13 h1 v1 h-1Z M7 13 h1 v1 h-1Z M7 14 h1 v1 h-1Z M7 15 h1 v1 h-1Z M7 16 h1 v1 h-1Z M7 17 h1 v1 h-1Z M7 18 h1 v1 h-1Z M7 19 h1 v1 h-1Z M7 20 h1 v1 h-1Z"/>
<path class="qr-timing light qrcode" fill="#fff" d="M9 6 h1 v1 h-1Z M11 6 h1 v1 h-1Z M6 9 h1 v1 h-1Z M6 11 h1 v1 h-1Z"/>
<path class="qr-format light qrcode" fill="#fff" d="M8 1 h1 v1 h-1Z M8 5 h1 v1 h-1Z M8 7 h1 v1 h-1Z M4 8 h1 v1 h-1Z M5 8 h1 v1 h-1Z M7 8 h1 v1 h-1Z M14 8 h1 v1 h-1Z M15 8 h1 v1 h-1Z M19 8 h1 v1 h-1Z M8 14 h1 v1 h-1Z M8 15 h1 v1 h-1Z M8 16 h1 v1 h-1Z"/>
<path class="qr-darkmodule dark qrcode" fill="#000" d="M8 13 h1 v1 h-1Z"/>
<path class="qr-data-dark dark qrcode" fill="#000" d="M10 0 h1 v1 h-1Z M11 0 h1 v1 h-1Z M12 0 h1 v1 h-1Z M10 1 h1 v1 h-1Z M11 1 h1 v1 h-1Z M9 2 h1 v1 h-1Z M11 2 h1 v1 h-1Z M9 3 h1 v1 h-1Z M12 3 h1 v1 h-1Z M11 4 h1 v1 h-1Z M9 5 h1 v1 h-1Z M10 5 h1 v1 h-1Z M11 5 h1 v1 h-1Z M12 5 h1 v1 h-1Z M11 7 h1 v1 h-1Z M12 7 h1 v1 h-1Z M9 8 h1 v1 h-1Z M10 8 h1 v1 h-1Z M11 8 h1 v1 h-1Z M12 8 h1 v1 h-1Z M0 9 h1 v1 h-1Z M2 9 h1 v1 h-1Z M3 9 h1 v1 h-1Z M4 9 h1 v1 h-1Z M5 9 h1 v1 h-1Z M9 9 h1 v1 h-1Z M11 9 h1 v1 h-1Z M12 9 h1 v1 h-1Z M13 9 h1 v1 h-1Z M14 9 h1 v1 h-1Z M17 9 h1 v1 h-1Z M19 9 h1 v1 h-1Z M2 10 h1 v1 h-1Z M3 10 h1 v1 h-1Z M4 10 h1 v1 h-1Z M7 10 h1 v1 h-1Z M8 10 h1 v1 h-1Z M9 10 h1 v1 h-1Z M11 10 h1 v1 h-1Z M17 10 h1 v1 h-1Z M18 10 h1 v1 h-1Z M20 10 h1 v1 h-1Z M4 11 h1 v1 h-1Z M7 11 h1 v1 h-1Z M9 11 h1 v1 h-1Z M11 11 h1 v1 h-1Z M14 11 h1 v1 h-1Z M15 11 h1 v1 h-1Z M16 11 h1 v1 h-1Z M17 11 h1 v1 h-1Z M18 11 h1 v1 h-1Z M2 12 h1 v1 h-1Z M3 12 h1 v1 h-1Z M4 12 h1 v1 h-1Z M10 12 h1 v1 h-1Z M12 12 h1 v1 h-1Z M15 12 h1 v1 h-1Z M18 12 h1 v1 h-1Z M9 13 h1 v1 h-1Z M10 13 h1 v1 h-1Z M11 13 h1 v1 h-1Z M14 13 h1 v1 h-1Z M17 13 h1 v1 h-1Z M20 13 h1 v1 h-1Z M10 14 h1 v1 h-1Z M11 14 h1 v1 h-1Z M12 14 h1 v1 h-1Z M15 14 h1 v1 h-1Z M17 14 h1 v1 h-1Z M20 14 h1 v1 h-1Z M9 15 h1 v1 h-1Z M15 15 h1 v1 h-1Z M16 15 h1 v1 h-1Z M18 15 h1 v1 h-1Z M20 15 h1 v1 h-1Z M10 16 h1 v1 h-1Z M12 16 h1 v1 h-1Z M13 16 h1 v1 h-1Z M14 16 h1 v1 h-1Z M15 16 h1 v1 h-1Z M16 16 h1 v1 h-1Z M19 16 h1 v1 h-1Z M11 17 h1 v1 h-1Z M14 17 h1 v1 h-1Z M15 17 h1 v1 h-1Z M16 17 h1 v1 h-1Z M17 17 h1 v1 h-1Z M18 17 h1 v1 h-1Z M19 17 h1 v1 h-1Z M12 18 h1 v1 h-1Z M14 18 h1 v1 h-1Z M15 18 h1 v1 h-1Z M9 19 h1 v1 h-1Z M13 19 h1 v1 h-1Z M15 19 h1 v1 h-1Z M18 19 h1 v1 h-1Z M20 19 h1 v1 h-1Z M9 20 h1 v1 h-1Z M10 20 h1 v1 h-1Z M13 20 h1 v1 h-1Z
M16 20 h1 v1 h-1Z M19 20 h1 v1 h-1Z"/>
<path class="qr-finder-dark dark qrcode" fill="#000" d="M0 0 h1 v1 h-1Z M1 0 h1 v1 h-1Z M2 0 h1 v1 h-1Z M3 0 h1 v1 h-1Z M4 0 h1 v1 h-1Z M5 0 h1 v1 h-1Z M6 0 h1 v1 h-1Z M14 0 h1 v1 h-1Z M15 0 h1 v1 h-1Z M16 0 h1 v1 h-1Z M17 0 h1 v1 h-1Z M18 0 h1 v1 h-1Z M19 0 h1 v1 h-1Z M20 0 h1 v1 h-1Z M0 1 h1 v1 h-1Z M6 1 h1 v1 h-1Z M14 1 h1 v1 h-1Z M20 1 h1 v1 h-1Z M0 2 h1 v1 h-1Z M6 2 h1 v1 h-1Z M14 2 h1 v1 h-1Z M20 2 h1 v1 h-1Z M0 3 h1 v1 h-1Z M6 3 h1 v1 h-1Z M14 3 h1 v1 h-1Z M20 3 h1 v1 h-1Z M0 4 h1 v1 h-1Z M6 4 h1 v1 h-1Z M14 4 h1 v1 h-1Z M20 4 h1 v1 h-1Z M0 5 h1 v1 h-1Z M6 5 h1 v1 h-1Z M14 5 h1 v1 h-1Z M20 5 h1 v1 h-1Z M0 6 h1 v1 h-1Z M1 6 h1 v1 h-1Z M2 6 h1 v1 h-1Z M3 6 h1 v1 h-1Z M4 6 h1 v1 h-1Z M5 6 h1 v1 h-1Z M6 6 h1 v1 h-1Z M14 6 h1 v1 h-1Z M15 6 h1 v1 h-1Z M16 6 h1 v1 h-1Z M17 6 h1 v1 h-1Z M18 6 h1 v1 h-1Z M19 6 h1 v1 h-1Z M20 6 h1 v1 h-1Z M0 14 h1 v1 h-1Z M1 14 h1 v1 h-1Z M2 14 h1 v1 h-1Z M3 14 h1 v1 h-1Z M4 14 h1 v1 h-1Z M5 14 h1 v1 h-1Z M6 14 h1 v1 h-1Z M0 15 h1 v1 h-1Z M6 15 h1 v1 h-1Z M0 16 h1 v1 h-1Z M6 16 h1 v1 h-1Z M0 17 h1 v1 h-1Z M6 17 h1 v1 h-1Z M0 18 h1 v1 h-1Z M6 18 h1 v1 h-1Z M0 19 h1 v1 h-1Z M6 19 h1 v1 h-1Z M0 20 h1 v1 h-1Z M1 20 h1 v1 h-1Z M2 20 h1 v1 h-1Z M3 20 h1 v1 h-1Z M4 20 h1 v1 h-1Z M5 20 h1 v1 h-1Z M6 20 h1 v1 h-1Z"/>
<path class="qr-timing-dark dark qrcode" fill="#000" d="M8 6 h1 v1 h-1Z M10 6 h1 v1 h-1Z M12 6 h1 v1 h-1Z M6 8 h1 v1 h-1Z M6 10 h1 v1 h-1Z M6 12 h1 v1 h-1Z"/>
<path class="qr-format-dark dark qrcode" fill="#000" d="M8 0 h1 v1 h-1Z M8 2 h1 v1 h-1Z M8 3 h1 v1 h-1Z M8 4 h1 v1 h-1Z M0 8 h1 v1 h-1Z M1 8 h1 v1 h-1Z M2 8 h1 v1 h-1Z M3 8 h1 v1 h-1Z M8 8 h1 v1 h-1Z M13 8 h1 v1 h-1Z M16 8 h1 v1 h-1Z M17 8 h1 v1 h-1Z M18 8 h1 v1 h-1Z M20 8 h1 v1 h-1Z M8 17 h1 v1 h-1Z M8 18 h1 v1 h-1Z M8 19 h1 v1 h-1Z M8 20 h1 v1 h-1Z"/>
<path class="qr-finder-dot dark qrcode" fill="#000" d="M2 2 h1 v1 h-1Z M3 2 h1 v1 h-1Z M4 2 h1 v1 h-1Z M16 2 h1 v1 h-1Z M17 2 h1 v1 h-1Z M18 2 h1 v1 h-1Z M2 3 h1 v1 h-1Z M3 3 h1 v1 h-1Z M4 3 h1 v1 h-1Z M16 3 h1 v1 h-1Z M17 3 h1 v1 h-1Z M18 3 h1 v1 h-1Z M2 4 h1 v1 h-1Z M3 4 h1 v1 h-1Z M4 4 h1 v1 h-1Z M16 4 h1 v1 h-1Z M17 4 h1 v1 h-1Z M18 4 h1 v1 h-1Z M2 16 h1 v1 h-1Z M3 16 h1 v1 h-1Z M4 16 h1 v1 h-1Z M2 17 h1 v1 h-1Z M3 17 h1 v1 h-1Z M4 17 h1 v1 h-1Z M2 18 h1 v1 h-1Z M3 18 h1 v1 h-1Z M4 18 h1 v1 h-1Z"/>
</svg>
